<svg xmlns="http://www.w3.org/2000/svg" viewBox="0 0 204.88 90.03"><defs><style>.cls-1{fill:#45c29f;}.cls-1,.cls-2{stroke:#45c29f;stroke-miterlimit:10;}.cls-2{fill:none;}.cls-3{font-size:20px;font-family:ArialRoundedMTBold, Arial Rounded MT Bold;}.cls-4{letter-spacing:-0.04em;}.cls-5{letter-spacing:-0.02em;}.cls-6{font-size:15px;font-family:AndaleMono, Andale Mono;}</style></defs><title>Asset 2</title><g id="Layer_2" data-name="Layer 2"><g id="Layer_4" data-name="Layer 4"><polygon class="cls-1" points="11.82 44.72 0.9 30.05 19.45 27.16 30.37 41.83 11.82 44.72"/><polygon class="cls-1" points="86.45 89.1 86.24 70.81 102.14 60.21 102.35 78.5 86.45 89.1"/><polygon class="cls-1" points="44.94 57.02 34.02 42.35 40.64 24.42 51.57 39.09 44.94 57.02"/><polygon class="cls-2" points="32.45 40.27 21.53 25.6 28.15 7.67 39.08 22.34 32.45 40.27"/><polygon class="cls-2" points="55.1 64.7 59 46.83 74.04 60.78 70.14 78.65 55.1 64.7"/><polygon class="cls-2" points="53.65 37.53 42.72 22.86 63.12 20.66 74.04 35.32 53.65 37.53"/><polygon class="cls-1" points="41.16 20.78 30.23 6.11 50.63 3.91 61.55 18.58 41.16 20.78"/><text class="cls-3" transform="translate(69.64 17.28)">Ja<tspan class="cls-4" x="23.35" y="0">c</tspan><tspan class="cls-5" x="34.47" y="0">k</tspan><tspan x="45.44" y="0">son Stein</tspan></text><text class="cls-6" transform="translate(82.99 34.94)">UI Designer</text></g></g></svg>